<svg width="552" height="124" viewBox="0 0 552 124" fill="none" xmlns="http://www.w3.org/2000/svg">
<g clip-path="url(#clip0_13680_51008)">
<path d="M0 12C0 5.37259 5.37258 0 12 0H540C546.627 0 552 5.37258 552 12V112C552 118.627 546.627 124 540 124H12C5.37258 124 0 118.627 0 112V12Z" fill="#121212"/>
<g filter="url(#filter0_f_13680_51008)" style="mix-blend-mode:hard-light">
<rect width="658.022" height="349.49" transform="matrix(0.961048 -0.276382 0.272449 0.96217 17.2998 75.7109)" fill="url(#paint0_linear_13680_51008)"/>
</g>
<g filter="url(#filter1_f_13680_51008)" style="mix-blend-mode:soft-light">
<rect width="699.143" height="470.88" transform="matrix(0.961161 -0.27599 0.272837 0.96206 -39.9463 24.9609)" fill="url(#paint1_linear_13680_51008)"/>
</g>
<path d="M28.864 44.4C28.864 41.184 31.576 38.904 35.392 38.904C39.208 38.904 41.608 41.016 41.608 44.376H37.744C37.744 43.128 36.808 42.36 35.344 42.36C33.76 42.36 32.752 43.08 32.752 44.256C32.752 45.336 33.304 45.864 34.552 46.128L37.216 46.68C40.384 47.328 41.896 48.84 41.896 51.648C41.896 55.08 39.208 57.312 35.128 57.312C31.168 57.312 28.6 55.176 28.6 51.84H32.464C32.464 53.136 33.424 53.856 35.152 53.856C36.904 53.856 38.008 53.16 38.008 52.032C38.008 51.048 37.552 50.544 36.376 50.304L33.664 49.752C30.496 49.104 28.864 47.304 28.864 44.4ZM48.865 57H45.169V48.072H42.889V45H45.169V41.28H48.865V45H51.145V48.072H48.865V57ZM52.0409 50.976C52.0409 47.184 54.8249 44.64 58.6649 44.64C62.4809 44.64 65.2649 47.184 65.2649 50.976C65.2649 54.768 62.4809 57.288 58.6649 57.288C54.8249 57.288 52.0409 54.768 52.0409 50.976ZM55.7609 50.952C55.7609 52.776 56.9369 53.976 58.6649 53.976C60.3689 53.976 61.5449 52.776 61.5449 50.952C61.5449 49.152 60.3689 47.952 58.6649 47.952C56.9369 47.952 55.7609 49.152 55.7609 50.952ZM66.7596 50.952C66.7596 47.256 69.3036 44.616 72.9036 44.616C76.4556 44.616 78.8076 46.56 79.0476 49.704H75.3276C75.0636 48.504 74.3196 47.928 73.0476 47.928C71.4876 47.928 70.4796 49.104 70.4796 50.952C70.4796 52.872 71.4156 54 72.9996 54C74.2956 54 75.0876 53.4 75.3276 52.224H79.0476C78.8076 55.248 76.3596 57.312 72.9996 57.312C69.2076 57.312 66.7596 54.792 66.7596 50.952ZM84.7677 57H81.0717V38.904H84.7677V49.32L88.6557 45H93.2877L88.7757 49.752L93.1437 57H88.8717L86.1837 52.512L84.7677 54V57ZM108.814 51.096H105.502V57H101.614V39.24H108.814C112.438 39.24 114.862 41.616 114.862 45.168C114.862 48.72 112.438 51.096 108.814 51.096ZM107.95 42.696H105.502V47.64H107.95C109.822 47.64 110.758 46.824 110.758 45.168C110.758 43.512 109.822 42.696 107.95 42.696ZM124.829 45H128.525V57H125.045L124.805 55.656C124.061 56.64 122.573 57.312 121.133 57.312C118.397 57.312 116.717 55.488 116.717 52.536V45H120.413V51.192C120.413 53.16 121.085 54.024 122.597 54.024C124.181 54.024 124.829 53.208 124.829 51.24V45ZM139.554 45V48.48H138.378C136.266 48.48 134.994 49.416 134.994 51.792V57H131.298V45.024H134.778L134.97 46.8C135.474 45.624 136.53 44.832 138.138 44.832C138.57 44.832 139.05 44.88 139.554 45ZM140.424 50.952C140.424 47.256 142.968 44.616 146.568 44.616C150.12 44.616 152.472 46.56 152.712 49.704H148.992C148.728 48.504 147.984 47.928 146.712 47.928C145.152 47.928 144.144 49.104 144.144 50.952C144.144 52.872 145.08 54 146.664 54C147.96 54 148.752 53.4 148.992 52.224H152.712C152.472 55.248 150.024 57.312 146.664 57.312C142.872 57.312 140.424 54.792 140.424 50.952ZM158.432 57H154.736V38.904H158.456V46.248C159.2 45.216 160.568 44.616 162.128 44.616C164.984 44.616 166.64 46.44 166.64 49.584V57H162.944V50.472C162.944 48.96 162.104 47.976 160.832 47.976C159.368 47.976 158.432 48.936 158.432 50.424V57ZM172.914 57.312C170.37 57.312 168.786 55.824 168.786 53.472C168.786 51.264 170.346 49.896 173.226 49.68L176.586 49.416V49.224C176.586 48.048 175.866 47.424 174.546 47.424C172.986 47.424 172.146 48.024 172.146 49.104H169.074C169.074 46.392 171.306 44.616 174.738 44.616C178.218 44.616 180.186 46.56 180.186 49.992V57H176.922L176.682 55.416C176.298 56.52 174.714 57.312 172.914 57.312ZM174.21 54.576C175.626 54.576 176.61 53.88 176.61 52.512V51.864L174.738 52.032C173.13 52.176 172.554 52.536 172.554 53.304C172.554 54.168 173.082 54.576 174.21 54.576ZM181.973 53.208H185.477C185.525 54.048 186.149 54.552 187.277 54.552C188.429 54.552 188.957 54.144 188.957 53.52C188.957 53.16 188.765 52.776 187.877 52.584L185.669 52.104C183.461 51.624 182.381 50.664 182.381 48.552C182.381 46.056 184.517 44.616 187.397 44.616C190.181 44.616 192.125 46.248 192.125 48.672H188.621C188.621 47.856 188.117 47.304 187.229 47.304C186.389 47.304 185.861 47.736 185.861 48.384C185.861 48.936 186.317 49.248 187.157 49.44L189.389 49.92C191.357 50.352 192.437 51.264 192.437 53.184C192.437 55.752 190.253 57.312 187.133 57.312C183.965 57.312 181.973 55.632 181.973 53.208ZM199.937 57.312C196.313 57.312 193.721 54.672 193.721 50.976C193.721 47.232 196.241 44.616 199.865 44.616C203.633 44.616 205.985 47.088 205.985 51V51.936L197.273 51.984C197.489 53.568 198.377 54.312 200.009 54.312C201.401 54.312 202.385 53.808 202.649 52.944H206.033C205.601 55.608 203.225 57.312 199.937 57.312ZM199.889 47.616C198.425 47.616 197.609 48.264 197.321 49.704H202.313C202.313 48.432 201.377 47.616 199.889 47.616ZM213.213 57.312C209.757 57.312 207.525 54.864 207.525 51.072C207.525 47.256 209.805 44.616 213.453 44.616C214.941 44.616 216.357 45.216 217.053 46.104V38.904H220.749V57H217.269L217.077 55.464C216.429 56.568 214.941 57.312 213.213 57.312ZM214.101 53.928C215.829 53.928 217.029 52.728 217.029 50.928C217.029 49.128 215.829 47.928 214.101 47.928C212.349 47.928 211.245 49.152 211.245 50.928C211.245 52.704 212.349 53.928 214.101 53.928ZM28.864 72.4C28.864 69.184 31.576 66.904 35.392 66.904C39.208 66.904 41.608 69.016 41.608 72.376H37.744C37.744 71.128 36.808 70.36 35.344 70.36C33.76 70.36 32.752 71.08 32.752 72.256C32.752 73.336 33.304 73.864 34.552 74.128L37.216 74.68C40.384 75.328 41.896 76.84 41.896 79.648C41.896 83.08 39.208 85.312 35.128 85.312C31.168 85.312 28.6 83.176 28.6 79.84H32.464C32.464 81.136 33.424 81.856 35.152 81.856C36.904 81.856 38.008 81.16 38.008 80.032C38.008 79.048 37.552 78.544 36.376 78.304L33.664 77.752C30.496 77.104 28.864 75.304 28.864 72.4ZM51.985 73H55.681V85H52.201L51.961 83.656C51.217 84.64 49.729 85.312 48.289 85.312C45.553 85.312 43.873 83.488 43.873 80.536V73H47.569V79.192C47.569 81.16 48.241 82.024 49.753 82.024C51.337 82.024 51.985 81.208 51.985 79.24V73ZM57.5721 78.952C57.5721 75.256 60.1161 72.616 63.7161 72.616C67.2681 72.616 69.6201 74.56 69.8601 77.704H66.1401C65.8761 76.504 65.1321 75.928 63.8601 75.928C62.3001 75.928 61.2921 77.104 61.2921 78.952C61.2921 80.872 62.2281 82 63.8121 82C65.1081 82 65.9001 81.4 66.1401 80.224H69.8601C69.6201 83.248 67.1721 85.312 63.8121 85.312C60.0201 85.312 57.5721 82.792 57.5721 78.952ZM71.2362 78.952C71.2362 75.256 73.7802 72.616 77.3802 72.616C80.9322 72.616 83.2842 74.56 83.5242 77.704H79.8042C79.5402 76.504 78.7962 75.928 77.5242 75.928C75.9642 75.928 74.9562 77.104 74.9562 78.952C74.9562 80.872 75.8922 82 77.4762 82C78.7722 82 79.5642 81.4 79.8042 80.224H83.5242C83.2842 83.248 80.8362 85.312 77.4762 85.312C73.6842 85.312 71.2362 82.792 71.2362 78.952ZM91.1163 85.312C87.4923 85.312 84.9003 82.672 84.9003 78.976C84.9003 75.232 87.4203 72.616 91.0443 72.616C94.8123 72.616 97.1643 75.088 97.1643 79V79.936L88.4523 79.984C88.6683 81.568 89.5563 82.312 91.1883 82.312C92.5803 82.312 93.5643 81.808 93.8283 80.944H97.2123C96.7803 83.608 94.4043 85.312 91.1163 85.312ZM91.0683 75.616C89.6043 75.616 88.7883 76.264 88.5003 77.704H93.4923C93.4923 76.432 92.5563 75.616 91.0683 75.616ZM98.4889 81.208H101.993C102.041 82.048 102.665 82.552 103.793 82.552C104.945 82.552 105.473 82.144 105.473 81.52C105.473 81.16 105.281 80.776 104.393 80.584L102.185 80.104C99.9769 79.624 98.8969 78.664 98.8969 76.552C98.8969 74.056 101.033 72.616 103.913 72.616C106.697 72.616 108.641 74.248 108.641 76.672H105.137C105.137 75.856 104.633 75.304 103.745 75.304C102.905 75.304 102.377 75.736 102.377 76.384C102.377 76.936 102.833 77.248 103.673 77.44L105.905 77.92C107.873 78.352 108.953 79.264 108.953 81.184C108.953 83.752 106.769 85.312 103.649 85.312C100.481 85.312 98.4889 83.632 98.4889 81.208ZM110.02 81.208H113.524C113.572 82.048 114.196 82.552 115.324 82.552C116.476 82.552 117.004 82.144 117.004 81.52C117.004 81.16 116.812 80.776 115.924 80.584L113.716 80.104C111.508 79.624 110.428 78.664 110.428 76.552C110.428 74.056 112.564 72.616 115.444 72.616C118.228 72.616 120.172 74.248 120.172 76.672H116.668C116.668 75.856 116.164 75.304 115.276 75.304C114.436 75.304 113.908 75.736 113.908 76.384C113.908 76.936 114.364 77.248 115.204 77.44L117.436 77.92C119.404 78.352 120.484 79.264 120.484 81.184C120.484 83.752 118.3 85.312 115.18 85.312C112.012 85.312 110.02 83.632 110.02 81.208ZM121.287 73H122.943V72.04C122.943 68.464 124.815 66.904 127.863 66.904C128.367 66.904 128.943 66.952 129.519 67.048V70.216H128.487C126.975 70.216 126.639 71.008 126.639 72.04V73H129.519V76.072H126.639V85H122.943V76.072H121.287V73ZM139.149 73H142.845V85H139.365L139.125 83.656C138.381 84.64 136.893 85.312 135.453 85.312C132.717 85.312 131.037 83.488 131.037 80.536V73H134.733V79.192C134.733 81.16 135.405 82.024 136.917 82.024C138.501 82.024 139.149 81.208 139.149 79.24V73ZM149.315 85H145.619V66.904H149.315V85ZM155.783 85H152.087V66.904H155.783V85ZM157.596 90.76V87.664H159.636C160.884 87.664 161.412 87.28 161.892 85.984L162.108 85.408L157.284 73H161.244L163.86 80.704L166.764 73H170.604L164.508 87.616C163.5 90.064 162.156 91.096 160.044 91.096C159.156 91.096 158.316 90.976 157.596 90.76Z" fill="#E9E9F6"/>
<path d="M267.088 53.5494C267.088 45.7772 273.642 40.2671 282.864 40.2671C292.087 40.2671 297.887 45.3712 297.887 53.4914H288.548C288.548 50.4753 286.286 48.6193 282.748 48.6193C278.92 48.6193 276.484 50.3593 276.484 53.2014C276.484 55.8114 277.818 57.0874 280.834 57.7255L287.272 59.0595C294.929 60.6255 298.583 64.2796 298.583 71.0657C298.583 79.3599 292.087 84.754 282.226 84.754C272.656 84.754 266.45 79.5919 266.45 71.5297H275.788C275.788 74.6618 278.108 76.4018 282.284 76.4018C286.518 76.4018 289.187 74.7198 289.187 71.9938C289.187 69.6157 288.084 68.3977 285.242 67.8177L278.688 66.4836C271.032 64.9176 267.088 60.5675 267.088 53.5494ZM300.938 49.7793V41.0791H334.695V49.7793H322.515V84H313.118V49.7793H300.938ZM378.242 62.4816C378.242 75.5898 369.6 84.696 357.129 84.696C344.717 84.696 336.191 75.6478 336.191 62.5396C336.191 49.4313 344.775 40.3251 357.187 40.3251C369.658 40.3251 378.242 49.3733 378.242 62.4816ZM368.324 62.4816C368.324 54.3034 364.148 49.3733 357.245 49.3733C350.285 49.3733 346.109 54.3034 346.109 62.4816C346.109 70.7177 350.285 75.6478 357.245 75.6478C364.148 75.6478 368.324 70.6017 368.324 62.4816ZM403.349 84.696C390.473 84.696 382.411 76.1698 382.411 62.5976C382.411 49.1993 390.937 40.3831 403.755 40.3831C414.485 40.3831 422.2 46.5312 423.534 56.1594H413.615C412.339 51.8673 408.685 49.4313 403.523 49.4313C396.563 49.4313 392.329 54.3614 392.329 62.5396C392.329 70.6017 396.621 75.6478 403.523 75.6478C408.801 75.6478 412.687 73.0378 413.847 68.8037H423.592C422.084 78.3739 414.079 84.696 403.349 84.696ZM439.272 41.0791V61.6115L454.758 41.0791H465.836L451.8 59.4075L465.952 84H455.106L445.652 67.4117L439.272 75.7638V84H429.876V41.0791H439.272ZM465.731 53.5494C465.731 45.7772 472.285 40.2671 481.507 40.2671C490.729 40.2671 496.529 45.3712 496.529 53.4914H487.191C487.191 50.4753 484.929 48.6193 481.391 48.6193C477.563 48.6193 475.127 50.3593 475.127 53.2014C475.127 55.8114 476.461 57.0874 479.477 57.7255L485.915 59.0595C493.571 60.6255 497.225 64.2796 497.225 71.0657C497.225 79.3599 490.729 84.754 480.869 84.754C471.299 84.754 465.093 79.5919 465.093 71.5297H474.431C474.431 74.6618 476.751 76.4018 480.927 76.4018C485.161 76.4018 487.829 74.7198 487.829 71.9938C487.829 69.6157 486.727 68.3977 483.885 67.8177L477.331 66.4836C469.675 64.9176 465.731 60.5675 465.731 53.5494Z" fill="#D3F3FF" fill-opacity="0.15"/>
</g>
<defs>
<filter id="filter0_f_13680_51008" x="-7.7598" y="-131.216" width="777.729" height="568.252" filterUnits="userSpaceOnUse" color-interpolation-filters="sRGB">
<feFlood flood-opacity="0" result="BackgroundImageFix"/>
<feBlend mode="normal" in="SourceGraphic" in2="BackgroundImageFix" result="shape"/>
<feGaussianBlur stdDeviation="12.5298" result="effect1_foregroundBlur_13680_51008"/>
</filter>
<filter id="filter1_f_13680_51008" x="-65.0059" y="-193.052" width="850.581" height="696.088" filterUnits="userSpaceOnUse" color-interpolation-filters="sRGB">
<feFlood flood-opacity="0" result="BackgroundImageFix"/>
<feBlend mode="normal" in="SourceGraphic" in2="BackgroundImageFix" result="shape"/>
<feGaussianBlur stdDeviation="12.5298" result="effect1_foregroundBlur_13680_51008"/>
</filter>
<linearGradient id="paint0_linear_13680_51008" x1="329.011" y1="0" x2="329.011" y2="349.49" gradientUnits="userSpaceOnUse">
<stop stop-color="#008AFF" stop-opacity="0"/>
<stop offset="0.4" stop-color="#008AFF" stop-opacity="0.9"/>
<stop offset="0.7" stop-color="white"/>
<stop offset="0.8" stop-color="#F7A442"/>
<stop offset="0.903911" stop-color="#E942F7"/>
<stop offset="1" stop-color="#000022" stop-opacity="0.5"/>
</linearGradient>
<linearGradient id="paint1_linear_13680_51008" x1="349.572" y1="0" x2="349.572" y2="480.082" gradientUnits="userSpaceOnUse">
<stop offset="0.210537" stop-color="#008AFF" stop-opacity="0"/>
<stop offset="0.414965" stop-color="#008AFF" stop-opacity="0.9"/>
<stop offset="0.641898" stop-color="white"/>
<stop offset="0.8" stop-color="#F7A442"/>
<stop offset="1" stop-color="#E942F7"/>
</linearGradient>
<clipPath id="clip0_13680_51008">
<path d="M0 12C0 5.37259 5.37258 0 12 0H540C546.627 0 552 5.37258 552 12V112C552 118.627 546.627 124 540 124H12C5.37258 124 0 118.627 0 112V12Z" fill="white"/>
</clipPath>
</defs>
</svg>
